<?xml version="1.0" encoding="utf-8"?>
<!-- Generator: Adobe Illustrator 19.0.0, SVG Export Plug-In . SVG Version: 6.00 Build 0)  -->
<svg version="1.1" id="图层_1" xmlns="http://www.w3.org/2000/svg" xmlns:xlink="http://www.w3.org/1999/xlink" x="0px" y="0px"
	 viewBox="0 0 69 63" style="enable-background:new 0 0 69 63;" xml:space="preserve">
<style type="text/css">
	.st0{fill:#FFFFFF;}
</style>
<g id="XMLID_1_">
	<path id="XMLID_32_" class="st0" d="M0,31c0-2.7,0-5.3,0-8c2.1-3.8,4.7-7.4,9.3-7.8c4.1-0.3,8.2,0.6,11.9,0.9
		c0.2-1.9,0.4-4.2,0.6-6.5c0.4-5.2,4.7-7,8.2-9.6c2.7,0,5.3,0,8,0c7.9,2.9,10.9,8.7,9.2,16.8c2.1-0.7,3.9-1.4,5.7-1.8
		c8.3-1.5,13.2,2.7,16.1,10c0,1.3,0,2.7,0,4c-2.5,6.3-6.7,10.6-14.4,10.9c7.9,8.4,8.3,14.9,1.7,20.1C55,61.2,53.5,62,52,63
		c-3,0-6,0-9,0c-3-2.4-5.9-4.9-8.7-7.1c-2.6,2.2-5.5,4.7-8.3,7.1c-3,0-6,0-9,0c-4.1-2.4-8-4.9-9-10.1c-1.1-5.6,2.5-9,6-12.6
		C3.2,37.1,4.5,37.5,0,31z M33.9,28c-3.5,0-6.8,2.8-5.7,5.7c1,2.5,3.5,5.1,6,6c2.7,1,7.1-3.5,6.7-6.3C40.3,29.6,37.7,27.8,33.9,28z"
		/>
</g>
</svg>
