<?xml version="1.0" encoding="utf-8"?>
<!-- Generator: Adobe Illustrator 19.0.0, SVG Export Plug-In . SVG Version: 6.00 Build 0)  -->
<svg version="1.1" id="图层_1" xmlns="http://www.w3.org/2000/svg" xmlns:xlink="http://www.w3.org/1999/xlink" x="0px" y="0px"
	 viewBox="0 0 191 161" style="enable-background:new 0 0 191 161;" xml:space="preserve">
<style type="text/css">
	.st0{fill:#FFFFFF;}
</style>
<g id="XMLID_1_">
	<path id="XMLID_42_" class="st0" d="M191,60c-47,0-93.9-0.3-140.9,0.2C38.6,60.4,29,57,20.5,50.5C13,44.8,6.8,37.6,0,31
		c0-0.3,0-0.7,0-1c0.8,0,1.7,0,2.5,0c12.8,0.7,25-1.2,36.3-7.9c3.5-2.1,5.8-4.1,5.3-8.7C43.6,9,44,4.5,44,0c32.3,0,64.7,0,97,0
		c5.3,11,13,20.1,22.8,27.2c8.2,5.9,17,10.8,27.2,12.8C191,46.7,191,53.3,191,60z"/>
	<path id="XMLID_41_" class="st0" d="M95,161c-0.3-1.2-1-2.5-1-3.7c-0.1-22.8,0-45.6,0-68.3c0-0.6,0.2-1.3,0.3-2.2
		c14.8,0,29.4,0,44.6,0c0,24.5,0,49.4,0,74.2C124.3,161,109.7,161,95,161z"/>
	<path id="XMLID_40_" class="st0" d="M148,161c0-24.4,0-48.8,0-74c14.5,0,28.7,0,43,0c0,24.7,0,49.3,0,74
		C176.6,161,162.3,161,148,161z"/>
	<path id="XMLID_39_" class="st0" d="M191,79c-2.1-0.3-4.2-1-6.2-1c-44.8-0.1-89.6,0-134.5,0c-2,0-3.9,0-6.3,0c0-1.8,0.1-3.1,0-4.4
		c-0.6-4.3,1.1-5.7,5.5-5.7C96.7,68,143.8,68,191,68C191,71.7,191,75.3,191,79z"/>
	<path id="XMLID_36_" class="st0" d="M45,161c-0.3-8-0.6-16.1-0.8-24.1c0-0.6,1.3-1.6,2-1.6c13-0.1,26-0.1,39.7-0.1
		c0,9.4,0,17.6,0,25.8C72.3,161,58.7,161,45,161z"/>
	<path id="XMLID_35_" class="st0" d="M85.8,110.4c0,5.9,0,11.5,0,17.6c-13.1,0-26.1,0.1-39-0.2c-1,0-2.6-2.3-2.7-3.7
		c-0.3-4.5-0.1-8.9-0.1-13.8C57.9,110.4,71.6,110.4,85.8,110.4z"/>
	<path id="XMLID_34_" class="st0" d="M85.6,86.7c0,4.9,0,9.7,0,14.6c-13.9,0-27.3,0-41.2,0c0-4.9,0-9.7,0-14.6
		C58.3,86.7,71.7,86.7,85.6,86.7z"/>
</g>
</svg>
