<?xml version="1.0" encoding="utf-8"?>
<!-- Generator: Adobe Illustrator 19.0.0, SVG Export Plug-In . SVG Version: 6.00 Build 0)  -->
<svg version="1.1" id="图层_1" xmlns="http://www.w3.org/2000/svg" xmlns:xlink="http://www.w3.org/1999/xlink" x="0px" y="0px"
	 viewBox="0 0 305 193" style="enable-background:new 0 0 305 193;" xml:space="preserve">
<style type="text/css">
	.st0{fill:#FFFFFF;}
</style>
<g id="XMLID_1_">
	<path id="XMLID_50_" class="st0" d="M305,33c-2.1,2.6-4.3,5.2-6.4,7.9c-10.9,14.2-25.7,22.2-42.9,24.9c-10.7,1.6-21.8,1.1-32.7,1.2
		c-11.8,0.2-23.6-0.1-35.4,0.1c-17.1,0.2-34.1,0.9-51.2,0.9c-26.9-0.1-53.8,0-80.7-1.1c-15.8-0.6-30.2-6.7-42-17.7
		C8.8,44.4,4.5,39,0,34c0-0.7,0-1.3,0-2c15.3,0,30.5-0.2,45.8,0.1c5.2,0.1,6.5-1.6,6.3-6.5C51.7,17.1,52,8.5,52,0c67,0,134,0,201,0
		c0,10.6,0,21.1,0,32c17.8,0,34.9,0,52,0C305,32.3,305,32.7,305,33z"/>
	<path id="XMLID_49_" class="st0" d="M203,193c0-14.7,0-29.3,0-44c0-3,0.5-4.2,4-5.3c8.9-2.8,15.4-8.9,18.7-17.3
		c-5.2-1.8-10.5-3.1-15.3-5.4c-5.3-2.5-7.7-7.3-7.4-13.3c0.2-5,0-10,0-15.1c17.6,0,35,0,53,0c0,33.3,0,66.9,0,100.5
		C238.3,193,220.6,193,203,193z"/>
	<path id="XMLID_48_" class="st0" d="M49,193c0-33.4,0-66.8,0-100.4c17.2,0,34.7,0,52.1,0c2.5,16.9,2.7,30.9-23.3,33
		c5.3,8.8,10.9,16.4,21.6,18.6c1.1,0.2,2.4,2.8,2.5,4.4c0.2,14.8,0.1,29.6,0.1,44.4C84.3,193,66.7,193,49,193z"/>
	<path id="XMLID_47_" class="st0" d="M135,193c-0.3-1.6-0.9-3.2-1-4.7c-0.1-12.8,0-25.7-0.1-38.5c0-2.8,0.2-4.9,3.9-4.8
		c10.5,0.1,21,0,32.1,0c0,16.2,0,32.1,0,48C158.3,193,146.6,193,135,193z"/>
	<path id="XMLID_44_" class="st0" d="M111,193c-0.3-8.7-0.7-17.3-1-26c-0.1-5.8,0.1-11.7-0.1-17.5c-0.1-3.1,0.8-4.5,4.2-4.6
		c11.9-0.3,11.9-0.5,11.8,11.6c-0.1,11.6-0.3,23.1-0.4,34.7c0,0.6-0.4,1.2-0.6,1.8C120.3,193,115.7,193,111,193z"/>
	<path id="XMLID_43_" class="st0" d="M179,193c0-15.8,0-31.5,0-47.6c5,0,9.7,0,15,0c0,15.9,0,31.8,0,47.6C189,193,184,193,179,193z"
		/>
	<path id="XMLID_42_" class="st0" d="M92.9,133c5.3-5.1,9.6-9.3,14.1-13.5c0.6-0.5,1.6-0.7,2.5-0.7c28.3,0,56.5,0,84.8,0.1
		c1.2,0,2.6,0.7,3.6,1.5c4.3,3.8,8.5,7.8,13,12c-2.6,2.5-6.7,4.5-11.5,4.5c-31.3,0-62.6,0.2-93.8-0.2
		C101.3,136.8,97.1,134.3,92.9,133z"/>
	<path id="XMLID_41_" class="st0" d="M255.7,76.2c0,2.8,0,5.1,0,7.6c-69.1,0-138,0-207,0c0-2.5,0-5,0-7.6
		C117.5,76.2,186.4,76.2,255.7,76.2z"/>
	<path id="XMLID_40_" class="st0" d="M110.3,109.7c0-5.9,0-11.3,0-16.9c27.9,0,55.4,0,83.3,0c0,5.8,0,11.2,0,16.9
		C165.9,109.7,138.2,109.7,110.3,109.7z"/>
</g>
</svg>
