<?xml version="1.0" encoding="utf-8"?>
<!-- Generator: Adobe Illustrator 19.0.0, SVG Export Plug-In . SVG Version: 6.00 Build 0)  -->
<svg version="1.1" id="图层_1" xmlns="http://www.w3.org/2000/svg" xmlns:xlink="http://www.w3.org/1999/xlink" x="0px" y="0px"
	 viewBox="0 0 527.1 188" style="enable-background:new 0 0 527.1 188;" xml:space="preserve">
<style type="text/css">
	.st0{fill:#FFFFFF;}
</style>
<g id="XMLID_1_">
	<path id="XMLID_21_" class="st0" d="M523.1,188c-7.1-4.7-15-8.5-21.1-14.2c-12.3-11.7-21.9-25.3-21.9-43.4c0-6.2-5.5-8.2-8.1-12
		c0.7,6.1,1.5,12.1,2,18.2c0.6,7.3-2.2,13.8-6.1,19.8c-3.1,4.8-5.6,5.1-8.5,0.2c-2.9-4.8-4.9-10.3-6.2-15.7
		c-2.1-9.1-1.7-18.2,1.8-27.1c0.4-0.9,0.4-2.1,1.1-2.7c4.2-4.3,2-7.3-1.7-10.3c-5.2-4.2-10.2-8.6-14.5-12.4c1,7.1,2.7,14.5,3.1,21.9
		c0.4,8.2-3.4,15.2-8.4,21.4c-0.6,0.7-4.1,0.2-4.6-0.6c-2.8-4.9-5.9-9.9-7.2-15.2c-3-11.5-2.3-23.1,3.4-33.9c0.5-0.9,1.1-1.6,2-2.9
		c-8.3-5.2-16.7-10.4-24.8-15.4c2.4,7.5,5.3,14.4,6.6,21.6c1.4,7.8-1.4,15.1-6.2,21.9c-6.9-2.7-10.1-8.7-12.1-14.7
		c-2.6-7.8-3.7-16.1-5.4-24.3c-0.2-1.1-0.1-2.3,0-3.5c1-7.8,1.1-8-7.2-9.7c-8.9-1.9-17.9-3.2-27.4-4.1c18.1,8.8,25,22.4,20,42.3
		c-8.9-4.2-15.1-10.4-20.4-17.3c-5.3-6.8-10.2-14-11.3-23c-0.1-0.7-1.8-1.9-2.5-1.8c-9.4,2-18.7,4.1-28,6.3
		c-0.3,0.1-0.5,0.8-0.8,1.2c21.5,0.7,37.3,25.4,35.1,39.9c-12.8,1.8-42.6-17.6-51.4-34c-8.5,6.3-17,12.6-25.4,18.9
		c0.1,0.5,0.3,1,0.4,1.5c4,0,8-0.2,12,0.1c1.8,0.1,4.2,0.7,5.2,1.9c7,8.8,13.7,17.8,21.5,27.9c-4.7,1.2-7.6,1.9-10.9,2.7
		c1.5,2.7,6.3,6.1-0.3,7.7c-10.2-12.7-20.4-25.3-31.4-38.9c-11.1,13.7-21.3,26.4-31.8,39.3c-1-0.9-2-1.9-3.2-3
		c1.1-1.6,2.1-3.1,3.4-5.1c-3.3-0.9-5.9-1.5-8.8-2.3c2.1-7.7,6.9-13.6,11.7-19.6c1.3-1.6,2.7-3.3,4-5c3.3-4,6.8-7.1,12.6-6
		c2.4,0.5,4.9,0.1,7.3,0.1c0.3-0.5,0.6-1,0.8-1.5c-8.2-6.2-16.5-12.5-25.4-19.2c-4.8,11.3-14,17.1-23,23
		c-6.5,4.3-13.4,8.1-20.6,11.3c-5.9,2.6-8.8-0.1-7.4-6.5c3.5-16.5,12.8-28,29.3-32.8c1.9-0.5,3.9-0.4,7.4-0.7
		c-10.9-5.2-21.6-5.7-32-7.8c-5.1,18.4-15.4,32.6-31.8,42.3c-8.1-13.7-1.2-29.1,18.3-41.5c-0.1-0.5-0.2-1-0.3-1.4
		c-11.7,2.1-23.5,4.2-34.6,6.2c1.4,19.9-0.8,37.1-14.9,50.8c-10.9-7.5-10.7-26.2-0.6-43.8c-8.4,5.2-16.9,10.3-25.4,15.6
		c10.4,13.6,8,47.5-5.2,54.3c-11.8-13.7-12.9-28.6-5.3-44.8c-0.3-0.2-0.7-0.5-1-0.7c-6.7,6-13.4,11.9-20.1,17.9
		c9.8,12.3,9.3,37.1,0.7,51c-2.6,4.2-4.4,4.4-7.7,0.8c-6.9-7.7-8.7-17.1-7.6-27c0.4-4.1,1.9-8.1,2.5-12.3c-2.4,5.2-9.1,6.6-8.5,15.1
		c0.8,11.2-5.6,21.2-12.4,30.2c-6.6,8.7-14.3,16.3-24.2,21.4c-2.2,1.1-4.5,2.2-6.8,3.3c-1.7,0-3.7,0.7-3.1-2.5
		c0.4-2.1,0.1-4.3,0.1-6.5c0.3-0.5,0.8-1,1-1.5c5.5-23,18.2-40.4,39-52.1c4.1-2.3,6.9-6.7,10.4-10.2c-23.9,8.8-40.7,9.5-49,1.4
		c6.5-10.5,16.6-15.5,28-18.2c11.5-2.7,22.6-2.2,32.1,5.1C70.2,96,78.5,88.7,87,81.2c-0.8-0.1-1.4-0.3-1.8-0.2
		c-10.5,3.9-21.4,4.4-32.3,2.8c-4.6-0.7-9.2-2.2-13.4-4.3c-5.7-2.9-5.6-4.7-0.5-8.8c0.4-0.3,0.8-0.5,1.3-0.8
		c11.2-6.8,23.2-9.3,36-6.8c7.2,1.4,14.1,3.8,19.1,9.9c0.4,0.5,2.6,0.2,3.6-0.4c10-5.5,19.9-11.1,29.9-16.6c0.6-0.4,1.5-0.3,2.2-0.5
		c-0.4-0.4-0.8-0.8-1.2-1.2c-12.9,1.6-25.4-0.2-37.6-4.4c-6-2.1-11.7-4.6-14.9-11.1c1.3-0.8,2.3-1.7,3.5-2.1
		c5.7-1.8,11.3-3.9,17.1-5.2c14-3.2,36.7,3.2,42.1,19.3c12.5-2,25-3.9,37.1-5.8c-5.1-2.3-11-4.3-16.2-7.3
		c-8.9-5.2-18.3-9.7-24.2-18.8c-1.1-1.7-1.6-3.7-2.4-5.6c2.2-0.8,4.4-2.2,6.7-2.4c8.9-0.7,17.8-0.1,26,3.9
		c9.8,4.8,19.6,11,21.1,22.1c1.1,8.4,4.3,9.8,11.4,10.8c8.6,1.2,16.9,4.1,24.8,6.1c-34.7-37-29.7-37.7-36.2-54.1c1.3,0,2.7,0,4,0
		c1.4,0.6,2.9,1.2,4.3,1.7c11.5,3.9,20.1,11.8,27,21.3c7.4,10.2,12.9,21.3,11.6,34.5c-0.1,1.1,0.9,2.7,1.8,3.3
		c8.8,6.2,17.7,12.3,26.7,18.6c8.9-6.5,18.5-13.5,28.3-20.7c0-2.1-0.1-4.6,0-7.2c0.9-16.1,9.8-27.9,20.6-38.8
		C318.9,6.4,326.9,3,335.1,0c1,0,2,0,3,0c0,0.7,0.1,1.4-0.1,2c-4.7,15.7-13.3,29-24.3,40.9c-3.7,4-6.9,8.2-10.4,12.4
		c-0.4-0.5-0.8-1-1.2-1.5c11.7-2.7,23.5-5.5,35.2-8.2c-3.4-20.2,29.4-41.8,55.9-32.3c-1.6,2.7-2.8,5.5-4.7,7.6
		c-7.5,8.5-17.1,14.2-27.1,19c-4.1,2-8.3,3.7-11.4,5.1c10.3,1.8,21.4,3.8,32.5,5.8c2.5,0.5,4-0.1,5.6-2.4c2.7-3.8,5.6-8,9.5-10.3
		c16.3-9.9,33-9.5,49.7-0.5c3,1.6,1.6,2.9,0.2,4.5c-4.9,5.6-11.4,8.5-18.3,9.8c-10.2,1.9-20.7,2.8-30.3,4.1
		c9.9,5.6,20.7,11.8,31.5,17.9c16.5-19.3,53.6-11.1,61.5,1.7c-6.7,7.1-15.7,8.6-24.7,8.7c-9,0.1-17.9-1.2-26.1-1.8
		c7.4,6.5,15.7,13.9,23.7,21c3.1-1.5,6.3-3.2,9.5-4.5c6.6-2.5,13.4-2.5,20.3-1c11.4,2.4,21.8,6.5,29.2,16.3c1.8,2.3,1.2,3.2-1,4.4
		c-7.2,3.8-14.9,4.3-22.6,2.8c-8.2-1.5-16.1-4.2-25.3-6.7c4.7,4.2,8.3,8.8,12.9,11.3c13.5,7.2,23,18.1,30,31.1
		c4.2,7.7,6.2,16.5,9.2,24.8c0,2,0,4,0,6C525.8,188,524.5,188,523.1,188z"/>
</g>
</svg>
