<?xml version="1.0" encoding="utf-8"?>
<!-- Generator: Adobe Illustrator 19.0.0, SVG Export Plug-In . SVG Version: 6.00 Build 0)  -->
<svg version="1.1" id="图层_1" xmlns="http://www.w3.org/2000/svg" xmlns:xlink="http://www.w3.org/1999/xlink" x="0px" y="0px"
	 viewBox="0 0 192 161" style="enable-background:new 0 0 192 161;" xml:space="preserve">
<style type="text/css">
	.st0{fill:#FFFFFF;}
</style>
<g id="XMLID_1_">
	<path id="XMLID_42_" class="st0" d="M192,31c-3.7,3.9-7.4,7.9-11.2,11.7c-7.4,7.3-16.3,12.6-25.8,16.7c-1.6,0.7-3.5,0.6-5.3,0.6
		C99.8,60,49.9,60,0,60c0-6.3,0-12.7,0-19c12.8-4.1,25-9.8,34.4-19.4C40.6,15.3,44.9,7.2,50,0c32.3,0,64.7,0,97,0
		c0,2.8,0.4,5.7-0.1,8.4c-1.4,7.8,1.8,12.7,8.8,15.5c1.6,0.7,3.3,1.3,4.9,2.1c10.1,4.5,20.7,4.2,31.4,4C192,30.3,192,30.7,192,31z"
		/>
	<path id="XMLID_41_" class="st0" d="M53,161c-0.3-1.2-1-2.5-1-3.7c-0.1-22.8,0-45.6,0-68.4c0-0.6,0.2-1.2,0.4-2.2
		c14.8,0,29.4,0,44.6,0c0,24.5,0,49.5,0,74.4C82.3,161,67.7,161,53,161z"/>
	<path id="XMLID_40_" class="st0" d="M0,87c12.1,0,24.1,0,36.2,0c2.2,0,4.5,0,7.4,0c0.1,1,0.4,2.4,0.4,3.8c0,21.8,0,43.7,0,65.5
		c0,1.6-0.6,3.2-1,4.7c-14.3,0-28.7,0-43,0C0,136.3,0,111.7,0,87z"/>
	<path id="XMLID_39_" class="st0" d="M0,68c48.7,0,97.5,0,146.6,0c0,3.5,0,6.8,0,10c-39.6,0-78.7,0-117.9,0C19.1,78,9.6,78,0,78
		C0,74.7,0,71.3,0,68z"/>
	<path id="XMLID_36_" class="st0" d="M106,161c0-8.5,0-17,0-25.1c12.6,0,24.9,0.4,37.1-0.2c3.6-0.2,3.9,0.7,3.9,3.4
		c0,7.3,0,14.7,0,22C133.3,161,119.7,161,106,161z"/>
	<path id="XMLID_35_" class="st0" d="M106.2,127.6c0-5.9,0-11.5,0-17.4c13.5,0,26.7,0,40.4,0c0,5.6,0,11.3,0,17.4
		C133.3,127.6,120,127.6,106.2,127.6z"/>
	<path id="XMLID_34_" class="st0" d="M106.3,86.7c13.4,0,26.7,0,40.4,0c0,4.5,0,9.4,0,14.5c-13.5,0-26.8,0-40.4,0
		C106.3,96.5,106.3,91.5,106.3,86.7z"/>
</g>
</svg>
