<?xml version="1.0" encoding="utf-8"?>
<!-- Generator: Adobe Illustrator 19.0.0, SVG Export Plug-In . SVG Version: 6.00 Build 0)  -->
<svg version="1.1" id="图层_1" xmlns="http://www.w3.org/2000/svg" xmlns:xlink="http://www.w3.org/1999/xlink" x="0px" y="0px"
	 viewBox="0 0 456.2 96" style="enable-background:new 0 0 456.2 96;" xml:space="preserve">
<style type="text/css">
	.st0{fill:#FFFFFF;}
</style>
<g id="XMLID_2_">
	<path id="XMLID_47_" class="st0" d="M96.3,64.7c-1.1,2.7-2,5.1-3,7.5c-2.5,6.2-5,12.5-7.4,18.7c-0.7,1.7-1.7,2.7-3.6,2.7
		c-5.4,0-10.7,0.1-16.1,0.1c-1.3,0-2.2-0.6-2.8-1.9c-7.8-16.6-15.5-33.1-23.3-49.6c-2.1-4.4-2.3-8.9-2.2-13.5
		c0.3-8.1,0.5-16.2,0.7-24.3c0-1.6,0.4-2,2-2C46.9,2.6,53.3,2.8,59.6,3c0.8,0,1.6,0,2.4,0.1c1.6,0,1.9,0.3,1.9,2
		c-0.1,3.6-0.2,7.2-0.3,10.8c-0.2,6.3-0.5,12.6-0.7,18.9c0,1.1,0.2,2.2,0.6,3.3C66.4,45.9,70,53.5,74,60.9c0.3,0.5,0.7,1,1.2,1.7
		c0.3-0.6,0.6-1,0.8-1.4c2.6-7.9,5.4-15.8,7.7-23.8c0.7-2.5,0.5-5.4,0.5-8.1c0-8-0.2-16-0.3-24c0-1.8,0.1-2,1.8-2.1
		c7.1-0.4,14.1-0.7,21.2,0.2c0.3,0,0.6,0.1,0.9,0.2c1.2,0.2,1.6,0.8,1.6,2.1c-0.2,8.8-0.3,17.6-0.6,26.4c-0.1,3,0.3,6,1.3,8.8
		c2.3,6.4,4.6,12.8,6.9,19.2c0.3,0.7,0.7,1.4,1.1,2.5c0.7-1.1,1.3-2,1.8-2.9c2.1-4.5,4.1-9.1,6.2-13.6c0.3-0.6,0.5-1.3,0.8-1.9
		c2.8-5.2,3-10.8,2.7-16.5c-0.5-7.5-0.6-15-0.8-22.5c-0.1-1.7,0.2-1.8,1.9-1.9c7.1-0.2,14.3-0.5,21.4-0.7c2.2-0.1,2.5,0.3,2.6,2.6
		c0.1,3.1,0.1,6.2,0.2,9.2c0.2,6.8,0.4,13.7,0.5,20.5c0,0.6-0.1,1.2-0.3,1.7c-8.6,18.5-17.3,37-25.9,55.5c-0.5,1.1-1.3,1.8-2.4,1.8
		c-5.5,0-11,0.1-16.5,0.1c-2,0-3-1.1-3.7-2.9c-3.2-8.2-6.4-16.3-9.6-24.4C96.7,65.9,96.6,65.4,96.3,64.7z"/>
	<path id="XMLID_46_" class="st0" d="M384.4,51.4c-0.1,0.4-0.3,0.9-0.2,1.3c0.1,7.6,0.2,15.3,0.4,22.9c0.1,4.4,0.1,8.8,0.2,13.2
		c0,1,0,2,0,3c-0.1,1.1-0.7,1.7-1.9,1.7c-7.3,0-14.6,0-21.8,0c-1.4,0-1.7-0.4-1.7-2.1c0-3.6,0.1-7.3,0.2-10.9
		c0.3-7.5,0.8-15,0.9-22.5c0.1-8.6,0.1-17.2-0.1-25.8c-0.2-9.3-0.6-18.5-0.9-27.8c-0.1-1.5,0.2-1.9,1.8-2c1.5-0.1,3,0,4.6-0.1
		c5.5-0.1,10.9-0.2,16.4-0.5c1.5-0.1,2.4,0.5,3,1.8c1.7,3.7,3.4,7.3,5,11c4.8,10.5,9.6,21,14.4,31.5c0.6,1.3,1.3,2.5,2.2,3.6
		c0.8,1,1.4,1,2-0.1c1.3-2.4,2.6-4.8,3.7-7.2c5.9-12.6,11.9-25.1,17.8-37.7c0.2-0.5,0.5-0.9,0.7-1.4c0.5-0.9,1.3-1.4,2.4-1.3
		c2.6,0.1,5.3,0.4,7.9,0.3c4.1-0.1,8.1-0.3,12.2-0.6c2.1-0.1,2.7,0.3,2.7,2.4c-0.3,10.1-0.7,20.3-0.8,30.4c-0.1,9.9,0,19.7,0.1,29.6
		c0.1,6.3,0.4,12.5,0.6,18.8c0.1,2.8,0.1,5.6,0.1,8.4c0,1.6-0.5,2.2-2.2,2.2c-7.4,0-14.7,0-22.1,0c-2,0-2.6-0.5-2.6-2.5
		c0-2.8,0.1-5.5,0.2-8.3c0.3-9.7,0.5-19.3,0.8-29c0-1,0-1.9,0-2.9c0-0.3-0.2-0.6-0.4-1.1c-0.4,0.8-0.7,1.3-1,1.8
		c-3.9,9.2-7.7,18.5-11.6,27.7c-1.8,4.4-3.6,8.8-5.3,13.2c-0.6,1.5-1.4,2.5-3.3,2.3c-0.7-0.1-1.4-0.1-2.2,0c-1.9,0-3.1-0.8-3.8-2.6
		c-4-9.3-8-18.5-12.1-27.8c-1.7-4-3.5-8-5.3-11.9c-0.2-0.4-0.4-0.8-0.6-1.1C384.6,51.4,384.5,51.4,384.4,51.4z"/>
	<path id="XMLID_43_" class="st0" d="M162.4,48c0.1-13.2,4.2-24.7,13.4-34.3c9.4-9.8,21.1-14.1,34.6-13.7
		c11.6,0.3,21.7,4.3,30.1,12.4c7.8,7.6,12.6,16.7,14.1,27.5c1.2,8.8,0.9,17.6-2.4,26c-7,17.6-19.7,28-38.9,29.8
		c-10.4,1-20.4-0.8-29.2-6.7c-11.6-7.6-18.7-18.4-20.9-32.2c-0.2-1.2-0.4-2.4-0.5-3.6C162.6,51.6,162.5,49.8,162.4,48z M230.5,49.6
		c0-7.1-1.4-11.8-4.3-16c-7.7-11.5-24-12.5-32.8-1.9c-6.8,8.1-8.1,17.3-4.2,26.9C195.1,73,210.8,74,219,68.8
		C226.6,64,230.3,56.9,230.5,49.6z"/>
	<path id="XMLID_42_" class="st0" d="M348.9,66.1c0.2,5.1,0.5,11.3,0.9,17.5c0.1,2.6,0.4,5.1,0.6,7.7c0.1,1.4-0.5,2.1-1.9,1.9
		c-2.3-0.3-4.6-0.8-6.8-1.3c-2.3-0.5-4.5-1.2-6.7-1.7c-0.6-0.1-1.3,0-1.8,0.2c-8.3,3.1-16.8,5-25.8,4.9c-17.8-0.3-31.2-8.3-39.7-24
		c-3.3-6.1-4.8-12.8-5.1-19.8c-0.4-9.1,0.7-17.9,4.9-26.1c6.9-13.9,17.9-22.5,33.5-24.6c10.7-1.4,20.9,0.2,30.4,5.8
		c4.1,2.4,7.5,5.6,10.2,9.4c1,1.4,1.1,2.7,0.2,4.2c-3,4.9-6.5,9.3-10.6,13.3c-0.3,0.2-0.6,0.4-0.9,0.7c-0.7,0.6-1.4,0.6-2.1-0.1
		c-1.5-1.5-3-3-4.6-4.3c-7.4-5.8-15.5-7.2-24.1-3.1c-4.7,2.2-7.7,6.3-9.5,11.1c-2.6,7.1-2.7,14.3,0,21.3c2.8,7.3,8.4,11.2,16,12.2
		c6.2,0.8,12.1-0.6,17.8-2.8c0.8-0.3,0.7-0.8,0.7-1.4c-0.5-4.6-1.1-9.3-1.5-13.9c-0.2-2.2-0.3-4.4-0.4-6.6c0-1.4,0.4-1.8,1.8-1.8
		c2.8,0.1,5.5,0.5,8.3,0.5c4.1,0,8.2-0.2,12.3-0.3c1,0,2-0.1,3-0.1c1.6,0,2.1,0.5,2.1,2.1c-0.1,3.4-0.2,6.8-0.3,10.2
		C349.2,59.6,349.1,62.3,348.9,66.1z"/>
	<path id="XMLID_41_" class="st0" d="M26.8,46.4c0.3,15.5,0.6,29.6,0.8,43.7c0.1,3.5,0.1,3.2-3,3.5c-7.1,0.7-14.3,0.6-21.4,0.1
		c-0.4,0-0.8-0.1-1.2-0.2c-1.5-0.3-2-1-2-2.5c0.4-8,0.8-16,1.1-24.1c0.3-7.7,0.6-15.5,0.6-23.2C1.7,34.1,1.2,24.4,1,14.7
		C0.9,11.1,0.9,7.6,0.9,4c0-1.2,0.4-1.6,1.7-1.6C5.8,2.5,9,2.7,12.3,2.7c4.2,0,8.4-0.2,12.6-0.3C29,2.3,28.4,3,28.3,5.7
		c-0.3,9-0.8,18-1.1,26.9C27,37.7,26.9,42.8,26.8,46.4z"/>
</g>
</svg>
